<svg width="1324" height="626" viewBox="0 0 1324 626" fill="none" xmlns="http://www.w3.org/2000/svg">
<path d="M313.447 123.548C345.936 133.028 374.779 150.383 396.999 176.051C401.471 181.217 407.556 188.584 410.95 194.493C414.98 199.284 420.621 209.637 423.476 215.19C440.398 247.398 447.645 283.817 444.342 320.054C440.09 369.344 414.237 417.513 376.469 449.333C343.706 476.936 304.492 489.976 261.96 491.643C253.081 460.131 253.84 429.025 258.232 397.018C336.741 399.231 379.975 328.817 344.19 259.329C343.319 258.747 336.548 249.628 335.401 248.277C316.614 226.131 289.827 219.549 262.54 217.601C264.359 216.079 266.729 215.586 266.942 215.414C275.783 208.293 285.328 194.077 291.332 184.25C295.152 174.539 298.828 164.848 302.968 155.252C305.141 150.216 308.678 145.958 311.173 141.128C312.271 139.001 311.913 136.462 312.914 133.922C313.869 133.485 314.095 133.405 315.093 133.199L315.923 133.033C316.052 129.867 313.372 129.345 312.059 124.044L313.447 123.548Z" fill="url(#paint0_linear_2_2)"/>
<path d="M313.447 123.548C345.936 133.028 374.779 150.383 396.999 176.051C401.471 181.217 407.556 188.584 410.95 194.493C405.995 192.078 404.547 185.33 398.799 183.631C395.319 184.864 341.717 239.88 336.052 247.137C338.175 249.466 345.009 256.325 344.19 259.329C343.319 258.747 336.548 249.628 335.401 248.277C316.614 226.131 289.827 219.549 262.54 217.601C264.359 216.079 266.729 215.586 266.942 215.414C275.783 208.293 285.328 194.077 291.332 184.25C295.152 174.539 298.828 164.848 302.968 155.252C305.141 150.216 308.678 145.958 311.173 141.128C312.271 139.001 311.913 136.462 312.914 133.922C313.869 133.485 314.095 133.405 315.093 133.199L315.923 133.033C316.052 129.867 313.372 129.345 312.059 124.044L313.447 123.548Z" fill="url(#paint1_linear_2_2)"/>
<path d="M114.514 115.274C155.083 114.723 195.767 115.462 236.339 115.111C264.092 114.871 286.797 115.824 313.447 123.548L312.059 124.044C313.372 129.345 316.052 129.867 315.923 133.033L315.093 133.199C314.095 133.405 313.869 133.485 312.914 133.922C311.913 136.462 312.271 139.001 311.173 141.128C308.678 145.958 305.141 150.216 302.968 155.252C298.828 164.848 295.152 174.539 291.332 184.25C285.328 194.077 275.783 208.293 266.942 215.414C266.729 215.586 264.359 216.079 262.54 217.601C254.869 216.527 225.559 217.193 216.116 217.188L114.481 217.204L114.514 115.274Z" fill="url(#paint2_linear_2_2)"/>
<path d="M487.942 214.406C515.398 215.173 553.828 208.777 575.092 229.136C600.145 253.121 600.413 293.166 576.878 318.558C558.661 335.889 540.359 336.118 517.504 336.075L487.931 335.925L487.942 214.406ZM512.043 313.687C527.266 313.796 544.708 315.473 556.483 303.877C556.814 303.554 557.139 303.225 557.458 302.889C572.75 286.006 571.876 258.984 554.891 243.463C542.713 232.334 527.263 233.797 511.963 233.933L512.043 313.687Z" fill="white"/>
<path d="M279.954 290.523C282.623 291.061 287.499 289.095 290.218 288.218C291.301 290.311 292.513 291.943 292.185 294.151C290.16 295.956 287.789 296.221 287.282 297.579L288.223 297.806C286.694 299.099 284.018 300.921 282.342 302.007C235.607 332.303 208.019 383.246 201.501 437.985C199.423 455.432 199.504 473.642 199.689 492.023L174.129 492.081C174.062 485.637 174.456 453.672 173.717 450.09L172.979 449.717C169.314 453.914 164.768 484.406 163.572 492.007L137.229 492.09C139.511 483.982 141.433 469.604 143.593 460.383C150.283 431.817 158.202 407.956 172.689 382.415C190.613 350.374 216.726 323.675 248.355 305.055C257.057 299.843 270.19 293.215 279.954 290.523ZM184.804 410.497C187.272 407.612 187.747 414.294 184.804 411.365C180.623 414.557 179.6 406.676 184.804 410.497Z" fill="white"/>
<path d="M1137.86 214.611L1162.88 214.392L1162.85 259.802C1169.16 252.207 1175.79 246.996 1185.85 245.794C1230.67 240.439 1244.55 294.652 1220.17 324.784C1217.98 327.111 1215.91 329.011 1213.21 330.787C1204.15 336.79 1193.06 338.93 1182.41 336.731C1173.3 334.793 1167.84 330.567 1162.9 322.95C1162.87 327.224 1162.94 331.631 1162.97 335.916L1137.84 336.091L1137.86 214.611ZM1189.66 314.605C1195.49 312.778 1199.39 310.058 1202.26 304.55C1208.17 293.212 1206 274.975 1193.6 268.788C1188.48 266.23 1184.02 266.691 1178.59 267.13C1176.6 268.012 1172.78 269.64 1171.37 271.171C1154.58 289.381 1162.64 317.133 1189.66 314.605Z" fill="white"/>
<path d="M73.0806 492.074C84.2828 446.352 97.4854 411.769 125.762 372.854C157.392 329.323 209.508 290.355 263.91 282.492L264.247 283.569C267.497 283.006 268.16 282.379 271.287 282.982C271.325 285.153 271.565 285.884 270.425 287.581L268.619 288.457L268.473 289.424C174.211 327.277 135.106 395.766 117.052 492.035L73.0806 492.074Z" fill="white"/>
<path d="M299.911 298.412C302.461 298.694 303.477 297.941 305.728 296.902L306.953 297.165C307.945 298.99 307.941 299.083 308.17 301.179L305.755 303.381L306.326 304.141C285.899 325.246 273.961 345.215 264.709 373.374C262.478 380.165 260.317 391.259 258.232 397.018C253.84 429.025 253.081 460.131 261.96 491.643C255.19 492.581 228.952 492.101 220.685 492.097C217.166 454.348 218.027 415.163 231.483 379.274C242.158 351.463 260.339 327.163 284.001 309.081C287.819 306.112 295.554 300.396 299.911 298.412Z" fill="white"/>
<path d="M1077.65 245.933C1094.91 243.591 1121.06 248.924 1123.55 269.876C1126.03 290.777 1124.88 314.651 1124.93 335.951C1117.16 335.964 1109.4 336.019 1101.63 336.118L1101.56 323.457C1089.19 340.861 1065.89 342.551 1050.77 327.67C1048.28 324.285 1046.82 322.093 1045.62 317.978C1043.56 310.805 1044.44 303.104 1048.08 296.589C1056.28 282.173 1076.86 280.614 1091.71 280.811C1094.8 280.853 1097.56 280.941 1100.57 280.08C1102.63 276.233 1097.9 267.508 1093.66 265.877C1081.67 261.256 1072.94 263.891 1067.27 275.566C1062.6 274.425 1052.33 273.357 1047.37 272.738C1050.38 255.765 1060.48 247.387 1077.65 245.933ZM1084.32 317.686C1099.33 314.234 1101.08 310.036 1100.85 295.421C1096.84 295.398 1092.01 295.216 1088.11 295.752C1084.68 296.06 1079.34 296.335 1076.55 298.181C1062.57 307.4 1070.59 317.47 1084.32 317.686Z" fill="white"/>
<path d="M833.777 245.918C836.829 245.713 839.88 245.691 842.931 245.853C874.202 247.292 881.022 271.245 879.794 298.008L819.335 298.067C820.311 302.732 821.029 306.762 824.397 310.384C834.695 321.448 853.178 319.797 861.46 307.044L872.456 310.529L878.928 312.055C871.687 327.108 863.929 334.945 846.843 337.29C820.492 340.839 797.658 327.13 794.865 299.433C792.04 271.441 804.239 248.892 833.777 245.918ZM819.684 281.269L842.207 281.21L856.437 281.218C853.876 267.216 847.353 263.483 833.57 264.492C824.455 267.875 821.837 271.968 819.684 281.269Z" fill="white"/>
<path d="M958.639 214.526L983.949 214.547L983.943 313.674L1035.05 313.632L1035.25 335.956L958.633 336.058C959.266 296.206 958.698 254.501 958.639 214.526Z" fill="white"/>
<path d="M701.442 247.682L729.299 247.652C735.609 268.649 742.306 289.527 749.392 310.277C755.701 290.097 763.11 267.852 768.605 247.659L794.271 247.736C791.801 253.668 789.597 260.075 787.405 266.148C779.266 289.338 770.124 312.754 761.765 336.02L734.82 335.997C725.065 307.433 712.232 276.186 701.442 247.682Z" fill="white"/>
<path d="M934.474 245.883C937.532 245.599 940.738 246.015 943.816 246.297C943.635 253.905 943.628 261.515 943.796 269.123C941.191 268.852 938.579 268.705 935.961 268.682C913.043 268.439 913.987 291.381 914.53 307.645C914.84 316.882 914.64 326.656 914.691 335.925C911.524 335.967 891.205 336.558 889.608 335.39L889.543 247.779C897.695 247.57 906.306 247.702 914.497 247.697L914.174 259.729C919.708 250.651 923.923 247.2 934.474 245.883Z" fill="white"/>
<path d="M650.15 245.89C653.04 245.629 655.335 245.996 658.199 246.32L658.128 269.416C651.876 268.385 646.126 267.77 640.39 271.036C627.927 278.132 629.186 294.8 629.152 307.127C629.124 316.777 629.303 326.337 629.421 335.916C621.092 336.034 612.638 335.984 604.297 336.011C605.138 308.644 604.599 275.199 604.267 247.668L629.18 247.636L629.214 259.804C634.124 250.546 639.867 247.017 650.15 245.89Z" fill="white"/>
<path d="M667.359 247.648C675.57 247.81 684.459 247.623 692.721 247.601C692.533 268.727 692.508 289.853 692.637 310.978C692.643 314.209 692.857 333.442 692.404 335.567L690.103 335.977L667.45 336.061C667.624 309.391 668.555 273.901 667.359 247.648Z" fill="white"/>
<path d="M953.474 384.375C955.523 384.476 957.999 384.452 960.087 384.483C960.437 398.681 959.926 413.036 960.314 427.354C958.277 427.421 955.452 427.721 953.629 427.1L953.37 424.013C948.677 424.467 950.326 430.267 939.4 426.925C923.639 416.579 937.208 383.78 953.39 401.159C953.351 395.564 953.383 389.969 953.474 384.375ZM949.336 421.496C956.176 414.814 955.155 401.566 943.77 402.801C938.113 408.761 937.874 421.906 947.216 421.703C947.927 421.688 948.638 421.619 949.336 421.496Z" fill="white"/>
<path d="M550.183 396.399C557.026 396.182 561.424 398.512 563.847 405.173C566.677 412.953 564.884 424.566 555.99 427.495C550.999 429.138 549.039 426.961 544.858 425.003C543.747 426.46 544.139 427.692 544.116 429.873C544.224 432.354 544.654 435.374 543.726 437.536C541.405 438.851 540.135 438.324 537.115 438.282L537.082 397.178C539.781 397.114 543.133 396.418 544.327 399.247L543.934 400.005L544.065 400.294C546.265 398.743 547.85 397.744 550.183 396.399ZM553.206 421.653C560.007 415.082 560.191 402.121 548.344 402.896C541.115 409.018 541.224 422.377 553.206 421.653Z" fill="white"/>
<path d="M498.755 384.787L507.294 384.861C511.03 397.875 517.13 414.234 521.501 427.387L513.557 427.393C512.586 423.727 512.029 417.322 508.298 416.45L495.689 416.47C494.489 419.953 493.623 423.742 492.724 427.331L484.739 427.391C488.676 413.982 494.295 398.171 498.755 384.787ZM504.419 410.475L506.741 410.418C507.901 407.824 504.258 395.569 502.643 393.699C501.729 396.542 497.886 408.342 498.064 410.449C500.182 410.496 502.301 410.504 504.419 410.475Z" fill="white"/>
<path d="M746.224 396.48C752.657 397.247 750.18 397.398 755.663 400.384C756.91 399.646 758.165 398.926 759.425 398.223C776.098 388.936 775.665 419.358 772.95 426.895C770.189 427.497 769.775 427.44 767.008 427.109C765.121 421.193 768.948 410.275 765.347 404.462C763.66 403.085 763.42 403.007 761.255 402.782C754.421 405.296 756.277 418.969 756.354 425.021L756.219 426.768C754.602 427.909 752.01 427.507 749.844 427.459C749.773 422.754 750.685 406.847 748.39 404.792C736.107 393.774 738.835 425.492 738.886 427.379L731.924 427.347L731.827 397.368C733.159 397.116 736.249 397.204 737.729 397.203C739.908 398.594 737.561 398.807 738.66 401.172C741.75 398.378 742.164 397.347 746.224 396.48Z" fill="white"/>
<path d="M853.657 396.491C873.484 395.251 876.988 421.272 859.96 427.68C838.975 430.467 835.109 402.764 853.657 396.491ZM859.404 421.605C866.076 415.137 865.533 401.687 853.146 402.94C846.604 410.245 847.67 423.934 859.404 421.605Z" fill="white"/>
<path d="M791.135 396.524C810.226 396.192 812.877 423.977 793.392 427.952C774.734 429.342 771.631 400.198 791.135 396.524ZM794.594 421.844C801.983 415.655 801.608 401.967 789.862 402.751C782.77 408.81 782.518 421.985 794.594 421.844Z" fill="white"/>
<path d="M677.095 213.426C680.522 213.265 683.444 213.106 686.657 214.585C689.825 216.02 692.275 218.681 693.439 221.958C694.609 225.314 694.324 229.005 692.656 232.144C690.316 236.61 687.265 237.897 682.875 239.299C675.77 239.555 669.428 238.348 666.422 230.906C665.116 227.76 665.232 224.204 666.732 221.148C669.001 216.572 672.589 214.936 677.095 213.426Z" fill="white"/>
<path d="M498.317 459.899C499.387 459.883 500.456 459.904 501.524 459.961C516.617 460.904 512.772 489.192 510.82 490.866C508.454 490.994 507.92 491.396 505.985 490.423L505.521 488.096C501.115 487.587 496.42 497.362 487.833 486.99C483.235 470.314 500.837 475.864 505.052 470.626C504.974 469.139 504.185 467.593 503.085 466.759C498.602 463.363 495.123 470.04 490.378 470.634C488.52 469.94 489.167 470.31 487.844 468.59C487.688 463.385 493.924 460.782 498.317 459.899ZM497.192 486.408C501.422 485.641 504.856 483.731 505.271 478.915L504.726 477.563C504.247 477.532 503.223 477.422 502.743 477.498C498.927 477.92 494.49 477.996 494.09 482.656C494.886 484.832 495.289 485.031 497.192 486.408Z" fill="white"/>
<path d="M600.365 396.528C602.091 396.559 606.225 397.252 608.138 397.528C615.215 402.801 615.418 406.237 615.466 414.451C610.828 414.476 599.256 413.59 595.613 415.015L595.239 416.143C596.296 418.725 598.11 420.303 600.587 421.538C605.31 423.894 607.597 418.766 612.18 417.386C613.44 417.991 613.409 417.998 614.451 418.943C614.991 427.347 600.863 430.285 595.152 426.177C584.16 418.27 585.93 399.556 600.365 396.528ZM602.644 409.425C605.356 409.399 605.88 409.852 607.857 408.505C608.712 404.438 604.994 402.82 601.533 402.101C598.507 403.467 594.566 405.081 596.602 408.854C598.413 409.851 600.479 409.5 602.644 409.425Z" fill="white"/>
<path d="M976.592 396.528C989.225 396.368 990.873 404.149 991.856 414.469C987.292 414.427 976.172 413.916 972.377 414.712L972.015 415.551C973.295 420.87 977.323 424.311 983.096 420.717C985.533 419.2 985.171 418.058 988.533 417.895L990.44 418.764C990.679 419.83 991.015 421.735 990.059 422.664C969.229 442.931 951.67 402.867 976.592 396.528ZM980.232 409.347C982.792 409.266 982.883 409.736 984.182 408.417C983.852 404.586 981.047 402.924 977.543 402.22C975.092 403.286 972.726 404.298 972.08 407.137C973.871 410.555 976.663 409.552 980.232 409.347Z" fill="white"/>
<path d="M699.884 396.508C712.943 396.108 714.579 403.579 715.458 414.445C710.874 414.4 699.897 413.879 696.076 414.761C694.272 420.811 702.573 423.905 707.881 419.891L711.12 417.454C712.587 418.004 713.053 418.268 714.417 419.055C715.587 424.988 703.918 431.024 696.858 426.814C684.459 419.418 684.698 400.538 699.884 396.508ZM704.83 409.356L707.59 409.218C710.228 405.488 703.834 402.673 700.841 402.08C698.604 403.481 697.815 403.85 696.173 406.032L695.947 407.65C697.705 409.359 697.848 409.564 700.705 409.511C702.076 409.476 703.453 409.425 704.83 409.356Z" fill="white"/>
<path d="M1078.23 396.537C1090.87 397.103 1091.85 403.975 1092.31 414.5C1087.64 414.454 1075.93 412.871 1073 416.146C1073.77 420.955 1078.85 423.562 1083.08 420.976C1086.32 419.002 1086.68 418.093 1090.57 417.903L1091.71 418.821C1091.68 423.398 1085.57 427.523 1081.62 428.081C1062.84 430.728 1058.45 399.924 1078.23 396.537ZM1081.73 409.408L1084.5 409.267L1085.41 408.08C1084.55 404.055 1081.68 402.419 1077.79 402.104C1075.59 403.777 1074.61 404.356 1073.12 406.764L1073.1 408.196C1075.95 410.225 1077.89 409.569 1081.73 409.408Z" fill="white"/>
<path d="M558.654 459.932C573.962 459.01 572.735 471.323 572.724 482.686C572.721 484.815 572.941 489.51 571.501 490.93C568.985 490.993 568.598 491.392 566.557 490.296L566.207 488.36C563.659 486.235 557.923 497.76 548.362 487.102C543.046 471.457 561.748 474.946 566.29 470.572L565.962 468.824C560.808 462.678 556.391 470.468 549.593 469.847L549.028 468.82C551.039 462.545 552.624 461.829 558.654 459.932ZM556.952 485.971C561.595 485.751 566.765 483.423 565.634 477.857L564.413 477.523C560.362 477.797 555.336 477.493 554.687 482.359C555.459 484.365 555.474 484.462 556.952 485.971Z" fill="white"/>
<path d="M589.552 460.452L597.225 460.371C599.612 467.687 601.792 475.328 604.003 482.719L610.186 460.443L617.581 460.52C615.745 466.831 613.306 473.713 611.218 480.003C609.447 485.169 607.631 492.643 604.889 497.101C602.05 501.718 598.56 502.057 593.7 502.948C593.778 500.575 593.61 498.906 594.635 496.788C602.093 492.204 599.733 489.171 597.215 481.556C594.884 474.501 592.11 467.439 589.552 460.452Z" fill="white"/>
<path d="M531.292 459.899C532.023 459.873 532.754 459.863 533.485 459.869C546.751 460.021 543.574 481.4 542.746 490.37C541.562 491.122 537.975 490.998 536.354 491.051C536.024 484.196 538.535 469.638 532.445 466.399C530.095 466.217 529.079 466.927 527.002 467.95C521.848 476.098 527.684 483.942 524.285 489.891C521.903 491.396 521.394 490.876 518.111 490.96L518.006 460.512C520.82 460.494 522.852 460.087 525.333 461.498L525.509 463.172L525.276 463.372C525.211 463.355 530.552 460.288 531.292 459.899Z" fill="white"/>
<path d="M889.925 396.389C903.229 396.511 900.766 409.722 900.992 419.107C901.051 421.596 900.766 424.229 900.339 426.678C898.613 427.691 896.208 427.338 893.907 427.38C894.049 419.589 897.954 397.106 884.216 404.894C881.507 410.537 882.522 420.774 882.671 427.337L875.489 427.448C875.314 417.518 875.443 407.192 875.43 397.231C885.419 396.991 880.467 397.415 882.865 400.947C885.464 398.444 886.388 397.265 889.925 396.389Z" fill="white"/>
<path d="M671.607 396.521C674.147 396.529 676.578 396.812 679.003 397.611C681.808 398.536 685.448 402.52 684.271 405.508C677.354 407.043 672.441 397.563 667.999 405.008C669.861 410.472 692.96 410.121 683.871 423.104C681.013 427.186 677.858 427.341 673.398 428.179C668.762 427.598 660.196 425.01 659.873 419.455C667.256 412.301 668.782 427.598 677.554 420.951C678.569 419.002 678.556 419.74 678.046 418.015C674.018 414.324 662.278 414.418 661.069 408.025C659.673 400.615 666.066 397.603 671.607 396.521Z" fill="white"/>
<path d="M1105.81 396.541C1111.57 396.289 1119.1 397.66 1119.31 404.904C1115.48 408.558 1108.29 398.581 1103.01 404.659L1103.31 405.857C1107.86 410.216 1118.84 409.518 1120.12 417.377C1121.29 424.577 1115.1 426.863 1109.53 427.949C1104.22 428.351 1095.79 425.174 1095.22 419.402L1096.34 418.424C1105.3 416.461 1103.76 425.855 1112.1 421.287C1113.29 419.466 1113.12 420.282 1112.97 418.241C1109.46 414.103 1097.75 414.967 1096.27 407.826C1094.85 400.951 1100.17 397.887 1105.81 396.541Z" fill="white"/>
<path d="M629.205 459.91C634.84 459.813 643.315 462.006 643.399 468.795C640.57 470.461 634.026 466.006 628.292 466.351C626.564 467.478 627.156 466.706 626.615 468.859C629.017 475.025 642.497 472.061 643.715 479.449C644.983 487.141 639.652 490.038 633.573 491.283C627.145 491.542 622.844 491.154 619.342 485.056C618.688 475.905 629.343 487.083 632.262 486.044C634.617 485.205 635.555 485.076 637.079 483.107L636.673 481.813C631.617 477.63 615.311 476.976 620.364 466.61C622.413 462.407 624.903 461.205 629.205 459.91Z" fill="white"/>
<path d="M1046.65 396.521C1049.7 396.301 1052.88 396.909 1055.94 397.355C1056.5 397.736 1057.05 398.133 1057.59 398.545C1061.21 401.349 1062.17 402.938 1062.74 407.277L1061.7 408.458C1057.54 407.43 1052.82 402.76 1048.35 403.057C1047.01 403.147 1045.79 403.817 1045 404.891C1039.11 412.722 1047.38 430.447 1056.12 417.504C1057.63 416.329 1059.97 416.624 1061.6 417.33C1062.83 421.288 1059.08 426.016 1055.53 427.154C1035.3 433.657 1027.46 404.242 1046.65 396.521Z" fill="white"/>
<path d="M630.184 396.519C635.475 396.304 643.222 398.439 644.699 404.201C644.372 406.463 644.775 405.964 643.478 407.437C638.39 408.331 632.609 398.464 627.223 405.356C620.39 414.101 631.181 430.436 638.637 416.91C641.209 416.879 642.887 416.371 644.609 418.3C645.026 422.99 639.326 426.793 635.345 427.71C616.156 432.134 610.983 400.729 630.184 396.519Z" fill="white"/>
<path d="M1013.29 397.467C1015.48 397.216 1018.65 397.137 1020.93 397.016L1018.73 403.223C1016 411.259 1013.33 419.319 1010.73 427.4L1002.36 427.392C999.083 417.511 995.748 406.785 992.011 397.129L1000.17 397.127C1001.39 403.648 1004.84 412.08 1006.43 419.499L1013.29 397.467Z" fill="white"/>
<path d="M656.86 452.311C657.681 453.482 657.229 457.972 657.242 459.819C659.181 461.379 660.364 459.579 663.655 460.862C664.327 462.904 664.301 463.161 663.771 465.25C662 466.926 660.293 466.244 657.132 466.207C657.164 470.439 657.294 475.883 657.184 480.017C656.983 487.552 664.534 483.513 663.952 489.504C662.472 491 661.095 491.048 658.994 491.512C644.9 490.022 651.411 477.047 649.969 466.512C647.131 465.956 646.491 466.119 645.33 463.563C645.542 461.494 645.175 461.377 646.306 460.295C649.794 460.357 649.73 460.707 650.958 457.744C650.641 456.021 650.564 455.782 650.706 454.059C652.6 452.536 654.384 452.608 656.86 452.311Z" fill="white"/>
<path d="M817.505 389.211L819.212 389.352C820.227 391.472 819.884 394.901 819.846 397.425C823.078 397.196 824.054 396.79 826.233 398.66C826.841 400.837 826.938 399.893 825.722 402.101C823.156 403.568 823.214 403.041 819.781 402.957C819.723 406.056 819.05 417.456 820.667 420.645C820.951 421.219 824.507 420.947 826.556 423.532C826.776 425.634 826.815 425.401 825.392 427.375C806.897 430.723 814.622 413.052 812.502 403.331C810.123 402.822 809.418 403.045 808.364 400.911C808.526 398.506 808.125 398.774 809.353 397.23L812.114 397.284C813.601 394.65 813.103 394.849 812.948 391.338C814.706 389.599 814.965 389.935 817.505 389.211Z" fill="white"/>
<path d="M578.435 447.124L585.575 446.883C585.669 454.978 584.814 477.734 586.381 484.221C590.443 486.428 589.607 486.63 589.675 490.912C588.451 491.013 587.226 491.077 585.998 491.103C582.994 491.153 582.21 490.754 580.05 488.631C577.382 482.937 578.423 454.732 578.435 447.124Z" fill="white"/>
<path d="M581.686 396.452C583.264 396.405 583.684 396.303 585.202 396.863C586.405 398.591 586.446 398.963 587.102 401.009C586.668 403.474 587.122 402.676 585.603 404.52C574.472 403.165 576.954 412.963 576.528 420.693C576.413 422.798 576.61 425.242 576.656 427.384L569.449 427.419C569.592 417.424 569.472 407.123 569.478 397.103C572.83 397.112 575.268 396.237 577.016 399.472L576.241 401.03C578.304 399.048 579.38 398.143 581.686 396.452Z" fill="white"/>
<path d="M279.954 290.523C287.826 287.48 322.878 276.861 330.07 279.663C326.948 281.227 322.559 282.577 319.175 283.64C308.005 287.152 298.519 292.453 288.223 297.806L287.281 297.579C287.789 296.221 290.16 295.956 292.185 294.151C292.513 291.943 291.301 290.311 290.218 288.218C287.499 289.095 282.623 291.061 279.954 290.523Z" fill="white"/>
<path d="M1024.02 397.036L1031.19 397.132L1031.25 427.397L1024.01 427.448L1024.02 397.036Z" fill="white"/>
<path d="M830.099 397.14L837.262 397.08L837.327 427.391L830.118 427.37L830.099 397.14Z" fill="white"/>
<path d="M649.09 397.35C651.605 397.192 653.369 396.858 655.703 397.734C656.356 401.136 656.143 422.081 656.182 427.347L649.07 427.443L649.09 397.35Z" fill="white"/>
<path d="M263.91 282.492C277.855 279.943 298.51 277.184 312.648 278.459C301.546 279.709 293.528 281.874 282.79 285.136C280.856 285.724 269.749 289.286 268.473 289.424L268.619 288.457L270.425 287.581C271.565 285.884 271.325 285.153 271.287 282.982C268.16 282.379 267.497 283.006 264.247 283.569L263.91 282.492Z" fill="white"/>
<path d="M299.911 298.412C310.541 291.684 327.903 283.586 340.268 281.261C330.525 285.713 324.366 289.535 315.915 296.326C314.744 297.267 307.104 303.648 306.326 304.141L305.755 303.381L308.17 301.179C307.941 299.083 307.945 298.99 306.953 297.165L305.728 296.902C303.477 297.941 302.461 298.694 299.911 298.412Z" fill="white"/>
<path d="M907.334 419.535C919.876 419.149 914.181 429.071 909.138 434.768L907.283 433.628L907.082 432.339C908.188 431.289 909.274 430.222 910.34 429.137L910.237 427.863C908.181 426.67 907.761 426.583 906.429 424.711C905.996 422.43 906.507 421.699 907.334 419.535Z" fill="white"/>
<path d="M1026.7 384.431C1029.04 383.871 1031.39 385.283 1032 387.609C1032.6 389.934 1031.23 392.315 1028.92 392.965C1027.39 393.396 1025.74 392.964 1024.61 391.834C1023.48 390.705 1023.06 389.055 1023.49 387.52C1023.92 385.984 1025.15 384.803 1026.7 384.431Z" fill="white"/>
<path d="M832.834 384.468C835.161 383.803 837.585 385.147 838.258 387.474C838.936 389.801 837.598 392.236 835.277 392.917C832.937 393.603 830.493 392.259 829.814 389.92C829.142 387.581 830.493 385.137 832.834 384.468Z" fill="white"/>
<path d="M651.928 384.435C654.223 384.047 656.408 385.55 656.867 387.831C657.332 390.112 655.897 392.348 653.634 392.883C652.102 393.245 650.499 392.744 649.445 391.576C648.392 390.407 648.055 388.757 648.572 387.27C649.09 385.784 650.376 384.697 651.928 384.435Z" fill="white"/>
<path d="M670.449 483.293C672.609 482.545 674.968 483.659 675.77 485.8C676.565 487.942 675.511 490.329 673.391 491.178C671.969 491.746 670.359 491.5 669.176 490.537C667.986 489.574 667.418 488.044 667.683 486.539C667.948 485.035 669.008 483.793 670.449 483.293Z" fill="white"/>
<defs>
<linearGradient id="paint0_linear_2_2" x1="285.701" y1="239.038" x2="389.205" y2="446.609" gradientUnits="userSpaceOnUse">
<stop stop-color="#00D4C6"/>
<stop offset="1" stop-color="#0099FF"/>
</linearGradient>
<linearGradient id="paint1_linear_2_2" x1="286.804" y1="162.802" x2="375.165" y2="224.825" gradientUnits="userSpaceOnUse">
<stop stop-color="#0CE995"/>
<stop offset="1" stop-color="#00D8C2"/>
</linearGradient>
<linearGradient id="paint2_linear_2_2" x1="117.666" y1="113.603" x2="277.641" y2="206.819" gradientUnits="userSpaceOnUse">
<stop stop-color="#46F04F"/>
<stop offset="1" stop-color="#0CE597"/>
</linearGradient>
</defs>
</svg>
