<svg width="2020" height="626" viewBox="0 0 2020 626" fill="none" xmlns="http://www.w3.org/2000/svg">
<path d="M313.391 124C345.88 133.48 374.723 150.835 396.943 176.503C401.415 181.669 407.5 189.036 410.894 194.945C414.924 199.736 420.566 210.089 423.42 215.642C440.342 247.85 447.589 284.269 444.286 320.506C440.034 369.796 414.181 417.965 376.413 449.785C343.65 477.388 304.436 490.427 261.904 492.095C253.025 460.583 253.784 429.477 258.176 397.47C336.685 399.683 379.919 329.269 344.134 259.781C343.263 259.199 336.492 250.08 335.345 248.729C316.558 226.583 289.771 220.001 262.484 218.053C264.303 216.531 266.673 216.038 266.886 215.866C275.727 208.745 285.273 194.529 291.276 184.702C295.097 174.991 298.772 165.3 302.913 155.704C305.085 150.668 308.622 146.41 311.117 141.58C312.215 139.453 311.857 136.914 312.858 134.374C313.813 133.937 314.039 133.857 315.037 133.651L315.867 133.485C315.996 130.319 313.316 129.797 312.003 124.496L313.391 124Z" fill="url(#paint0_linear_2_2)"/>
<path d="M313.447 123.548C345.936 133.028 374.779 150.383 396.999 176.051C401.471 181.217 407.556 188.584 410.95 194.493C405.995 192.078 404.547 185.33 398.799 183.631C395.319 184.864 341.717 239.88 336.052 247.137C338.175 249.466 345.009 256.325 344.19 259.329C343.319 258.747 336.548 249.628 335.401 248.277C316.614 226.131 289.827 219.549 262.54 217.601C264.359 216.079 266.729 215.586 266.942 215.414C275.783 208.293 285.328 194.077 291.332 184.25C295.152 174.539 298.828 164.848 302.968 155.252C305.141 150.216 308.678 145.958 311.173 141.128C312.271 139.001 311.913 136.462 312.914 133.922C313.869 133.485 314.095 133.405 315.093 133.199L315.923 133.033C316.052 129.867 313.372 129.345 312.059 124.044L313.447 123.548Z" fill="url(#paint1_linear_2_2)"/>
<path d="M114.514 115.274C155.083 114.723 195.767 115.462 236.339 115.111C264.092 114.871 286.797 115.824 313.447 123.548L312.059 124.044C313.372 129.345 316.052 129.867 315.923 133.033L315.093 133.199C314.095 133.405 313.869 133.485 312.914 133.922C311.913 136.462 312.271 139.001 311.173 141.128C308.678 145.958 305.141 150.216 302.968 155.252C298.828 164.848 295.152 174.539 291.332 184.25C285.328 194.077 275.783 208.293 266.942 215.414C266.729 215.586 264.359 216.079 262.54 217.601C254.869 216.527 225.559 217.193 216.116 217.188L114.481 217.204L114.514 115.274Z" fill="url(#paint2_linear_2_2)"/>
<path d="M1706.04 194.49L1762.06 194L1762 295.376C1776.13 278.422 1790.98 266.788 1813.51 264.104C1913.87 252.15 1944.94 373.178 1890.36 440.446C1885.44 445.64 1880.8 449.882 1874.77 453.846C1854.47 467.247 1829.65 472.025 1805.81 467.117C1785.41 462.791 1773.17 453.355 1762.11 436.35C1762.05 445.893 1762.21 455.732 1762.27 465.298L1706 465.688L1706.04 194.49ZM1822.03 417.721C1835.08 413.642 1843.82 407.571 1850.25 395.274C1863.48 369.963 1858.61 329.25 1830.86 315.438C1819.4 309.728 1809.4 310.756 1797.24 311.735C1792.79 313.705 1784.24 317.338 1781.07 320.757C1743.48 361.409 1761.53 423.366 1822.03 417.721Z" fill="white"/>
<path d="M73 491.582C84.2023 445.86 97.4048 411.277 125.681 372.362C157.312 328.831 209.428 289.864 263.829 282L264.166 283.077C267.417 282.514 268.08 281.887 271.206 282.49C271.244 284.661 271.484 285.392 270.345 287.089L268.538 287.965L268.392 288.932C174.13 326.785 135.026 395.274 116.971 491.543L73 491.582Z" fill="white"/>
<path d="M144 491C153.549 445.281 164.804 410.702 188.908 371.79C215.871 328.263 260.297 289.299 306.672 281.436L312 281C315 281 314 280.937 316.5 280.937C314 282.5 313.814 282.069 312 283.5L309 285L305 286.925C224.647 324.775 196.873 394.701 181.483 490.961L144 491Z" fill="white"/>
<path d="M299.911 298.412C302.461 298.694 303.477 297.941 305.728 296.902L306.953 297.165C307.945 298.99 307.941 299.083 308.17 301.179L305.755 303.381L306.326 304.141C285.899 325.246 273.961 345.215 264.709 373.374C262.478 380.165 260.317 391.259 258.232 397.018C253.84 429.025 253.081 460.131 261.96 491.643C255.19 492.581 228.952 492.101 220.685 492.097C217.166 454.348 218.027 415.163 231.483 379.274C242.158 351.463 260.339 327.163 284.001 309.081C287.819 306.112 295.554 300.396 299.911 298.412Z" fill="white"/>
<path d="M1571.95 264.145C1610.47 258.894 1668.86 270.85 1674.42 317.813C1679.96 364.662 1677.38 418.174 1677.51 465.919C1660.16 465.947 1642.83 466.072 1625.48 466.294L1625.33 437.913C1597.71 476.925 1545.69 480.714 1511.93 447.358C1506.38 439.77 1503.12 434.856 1500.45 425.632C1495.83 409.556 1497.8 392.293 1505.93 377.691C1524.25 345.376 1570.17 341.882 1603.34 342.324C1610.24 342.417 1616.39 342.614 1623.13 340.685C1627.72 332.062 1617.15 312.505 1607.7 308.849C1580.92 298.491 1561.44 304.398 1548.78 330.567C1538.35 328.008 1515.43 325.616 1504.34 324.227C1511.05 286.183 1533.61 267.404 1571.95 264.145ZM1586.84 424.979C1620.36 417.24 1624.25 407.831 1623.75 375.072C1614.8 375.02 1604 374.611 1595.3 375.814C1587.65 376.505 1575.73 377.119 1569.48 381.259C1538.29 401.921 1556.19 424.495 1586.84 424.979Z" fill="white"/>
<path d="M1025.85 264.386C1032.67 263.925 1039.49 263.878 1046.31 264.239C1116.2 267.459 1131.45 321.037 1128.7 380.9L993.575 381.033C995.757 391.467 997.361 400.481 1004.89 408.584C1027.91 433.332 1069.21 429.639 1087.72 401.112L1112.3 408.907L1126.76 412.32C1110.58 445.991 1093.24 463.521 1055.05 468.768C996.161 476.705 945.128 446.041 938.886 384.087C932.572 321.476 959.837 271.037 1025.85 264.386ZM994.355 343.459L1044.69 343.328L1076.5 343.344C1070.78 312.024 1056.2 303.675 1025.39 305.931C1005.02 313.498 999.167 322.653 994.355 343.459Z" fill="white"/>
<path d="M1305.01 194L1361.84 194.046L1361.82 415.902L1476.55 415.808L1477 465.771L1305 466C1306.42 376.807 1305.15 283.466 1305.01 194Z" fill="white"/>
<path d="M730 268.067L792.419 268C806.557 315.045 821.564 361.827 837.44 408.319C851.578 363.102 868.179 313.261 880.492 268.016L938 268.188C932.466 281.48 927.527 295.836 922.616 309.442C904.379 361.402 883.896 413.869 865.166 466L804.79 465.948C782.931 401.946 754.177 331.934 730 268.067Z" fill="white"/>
<path d="M1251.17 264.213C1257.99 263.578 1265.14 264.508 1272 265.138C1271.6 282.152 1271.58 299.172 1271.96 316.187C1266.15 315.579 1260.33 315.251 1254.49 315.199C1203.39 314.656 1205.5 365.964 1206.71 402.338C1207.4 422.996 1206.95 444.854 1207.07 465.584C1200.01 465.676 1154.7 466.999 1151.14 464.387L1151 268.451C1169.18 267.984 1188.37 268.281 1206.64 268.269L1205.91 295.176C1218.25 274.875 1227.65 267.157 1251.17 264.213Z" fill="white"/>
<path d="M614.942 264.199C621.425 263.614 626.575 264.435 633 265.161L632.84 316.878C618.815 314.57 605.913 313.192 593.045 320.505C565.083 336.395 567.909 373.719 567.83 401.321C567.769 422.93 568.171 444.337 568.435 465.786C549.749 466.051 530.782 465.939 512.068 466C513.954 404.717 512.746 329.827 512 268.18L567.894 268.109L567.971 295.355C578.986 274.624 591.871 266.722 614.942 264.199Z" fill="white"/>
<path d="M654 268.104C672.129 268.468 691.757 268.049 710 268C709.586 315.285 709.529 362.572 709.814 409.858C709.829 417.089 710.3 460.139 709.301 464.895L704.219 465.812L654.2 466C654.585 406.304 656.641 326.866 654 268.104Z" fill="white"/>
<path d="M674.878 191.229C682.537 190.862 689.069 190.502 696.252 193.857C703.333 197.114 708.81 203.151 711.411 210.585C714.027 218.201 713.391 226.575 709.663 233.697C704.431 243.83 697.61 246.749 687.798 249.929C671.916 250.512 657.739 247.773 651.019 230.887C648.1 223.75 648.36 215.682 651.712 208.749C656.785 198.365 664.805 194.653 674.878 191.229Z" fill="white"/>
<path d="M261 282.63C275.02 279.919 295.786 276.987 310 278.342C298.838 279.671 290.778 281.972 279.982 285.441C278.037 286.067 266.871 289.854 265.587 290L265.734 288.972L267.55 288.041C268.696 286.237 268.455 285.459 268.417 283.15C265.273 282.51 264.607 283.176 261.339 283.775L261 282.63Z" fill="white"/>
<path d="M299.911 298.412C310.541 291.684 327.903 283.586 340.268 281.261C330.525 285.713 324.366 289.535 315.915 296.326C314.744 297.267 307.104 303.648 306.326 304.141L305.755 303.381L308.17 301.179C307.941 299.083 307.945 298.99 306.953 297.165L305.728 296.902C303.477 297.941 302.461 298.694 299.911 298.412Z" fill="white"/>
<defs>
<linearGradient id="paint0_linear_2_2" x1="285.645" y1="239.49" x2="389.149" y2="447.061" gradientUnits="userSpaceOnUse">
<stop stop-color="#00D4C6"/>
<stop offset="1" stop-color="#0099FF"/>
</linearGradient>
<linearGradient id="paint1_linear_2_2" x1="286.804" y1="162.802" x2="375.165" y2="224.825" gradientUnits="userSpaceOnUse">
<stop stop-color="#0CE995"/>
<stop offset="1" stop-color="#00D8C2"/>
</linearGradient>
<linearGradient id="paint2_linear_2_2" x1="117.666" y1="113.603" x2="277.641" y2="206.819" gradientUnits="userSpaceOnUse">
<stop stop-color="#46F04F"/>
<stop offset="1" stop-color="#0CE597"/>
</linearGradient>
</defs>
</svg>
